<?xml version="1.0" standalone="no"?>
<!DOCTYPE svg PUBLIC "-//W3C//DTD SVG 20010904//EN"
 "http://www.w3.org/TR/2001/REC-SVG-20010904/DTD/svg10.dtd">
<svg version="1.0" xmlns="http://www.w3.org/2000/svg"
 width="512.000000pt" height="512.000000pt" viewBox="0 0 512.000000 512.000000"
 preserveAspectRatio="xMidYMid meet">
<metadata>
Created by potrace 1.14, written by Peter Selinger 2001-2017
</metadata>
<g transform="translate(0.000000,512.000000) scale(0.100000,-0.100000)"
fill="#000000" stroke="none">
<path d="M1280 5040 l0 -79 -517 -3 -518 -3 -56 -28 c-66 -32 -132 -99 -162
-165 l-22 -47 0 -2235 0 -2235 22 -47 c30 -66 96 -133 162 -165 l56 -28 1809
-3 1810 -2 118 30 c309 79 510 191 713 394 212 213 343 458 402 753 24 123 24
403 0 526 -96 479 -409 869 -854 1062 l-78 34 -5 958 c-5 956 -5 958 -27 1005
-30 66 -96 133 -162 165 l-56 28 -517 3 -518 3 0 79 0 80 -800 0 -800 0 0 -80z
m2 -527 c3 -120 5 -132 33 -182 37 -68 102 -125 171 -151 53 -19 76 -20 594
-20 528 0 540 0 597 22 77 29 152 104 181 181 18 46 22 80 22 167 l0 110 480
0 480 0 0 -882 0 -883 -173 0 c-195 -1 -287 -15 -452 -72 -423 -146 -751 -474
-898 -899 -58 -169 -72 -255 -72 -464 0 -207 11 -280 71 -458 71 -216 202
-422 367 -579 l87 -83 -695 0 -695 0 -2 528 -3 527 -527 3 -528 2 0 1630 0
1630 479 0 479 0 4 -127z m3003 -2643 c62 -38 86 -125 56 -199 -11 -25 -135
-134 -493 -433 -263 -219 -484 -401 -491 -404 -7 -2 -87 71 -179 163 -134 136
-168 176 -177 208 -31 118 76 225 193 194 27 -7 62 -32 107 -76 61 -59 70 -64
86 -52 11 8 175 145 366 304 191 160 364 298 385 308 44 21 100 16 147 -13z"/>
<path d="M960 3680 l0 -160 160 0 160 0 0 160 0 160 -160 0 -160 0 0 -160z"/>
<path d="M1679 3817 c-52 -35 -79 -82 -79 -137 0 -55 27 -102 79 -137 l34 -23
687 0 687 0 34 23 c106 71 106 203 0 274 l-34 23 -687 0 -687 0 -34 -23z"/>
<path d="M960 3040 l0 -160 160 0 160 0 0 160 0 160 -160 0 -160 0 0 -160z"/>
<path d="M1679 3177 c-52 -35 -79 -82 -79 -137 0 -55 27 -102 79 -137 l34 -23
527 0 527 0 34 23 c106 71 106 203 0 274 l-34 23 -527 0 -527 0 -34 -23z"/>
<path d="M960 2400 l0 -160 160 0 160 0 0 160 0 160 -160 0 -160 0 0 -160z"/>
<path d="M1679 2537 c-52 -35 -79 -82 -79 -137 0 -55 27 -102 79 -137 33 -22
42 -23 241 -23 199 0 208 1 241 23 106 71 106 203 0 274 -33 22 -42 23 -241
23 -199 0 -208 -1 -241 -23z"/>
<path d="M960 1760 l0 -160 160 0 160 0 0 160 0 160 -160 0 -160 0 0 -160z"/>
</g>
</svg>
